<mxfile host="app.diagrams.net" agent="Mozilla/5.0 (X11; CrOS x86_64 14541.0.0) AppleWebKit/537.36 (KHTML, like Gecko) Chrome/132.0.0.0 Safari/537.36" version="27.1.6">
  <diagram name="Page-1" id="UDICHsg91NhhRlkc6DY3">
    <mxGraphModel>
      <root>
        <mxCell id="0" />
        <mxCell id="1" parent="0" />
        <mxCell id="2" value="Sunlight" style="whiteSpace=wrap;strokeWidth=2;" vertex="1" parent="1">
          <mxGeometry x="312" y="8" width="118" height="54" as="geometry" />
        </mxCell>
        <mxCell id="3" value="Chlorophyll" style="whiteSpace=wrap;strokeWidth=2;" vertex="1" parent="1">
          <mxGeometry x="201" y="135" width="141" height="54" as="geometry" />
        </mxCell>
        <mxCell id="4" value="Chemical Energy" style="whiteSpace=wrap;strokeWidth=2;" vertex="1" parent="1">
          <mxGeometry x="8" y="262" width="179" height="54" as="geometry" />
        </mxCell>
        <mxCell id="5" value="CO₂ + H₂O" style="whiteSpace=wrap;strokeWidth=2;" vertex="1" parent="1">
          <mxGeometry x="33" y="389" width="130" height="54" as="geometry" />
        </mxCell>
        <mxCell id="6" value="Glucose" style="whiteSpace=wrap;strokeWidth=2;" vertex="1" parent="1">
          <mxGeometry x="206" y="516" width="116" height="54" as="geometry" />
        </mxCell>
        <mxCell id="7" value="Energetic Compound" style="whiteSpace=wrap;strokeWidth=2;" vertex="1" parent="1">
          <mxGeometry x="160" y="643" width="208" height="54" as="geometry" />
        </mxCell>
        <mxCell id="8" value="ATP" style="whiteSpace=wrap;strokeWidth=2;" vertex="1" parent="1">
          <mxGeometry x="221" y="770" width="86" height="54" as="geometry" />
        </mxCell>
        <mxCell id="9" value="Cellular Processes" style="whiteSpace=wrap;strokeWidth=2;" vertex="1" parent="1">
          <mxGeometry x="169" y="897" width="188" height="54" as="geometry" />
        </mxCell>
        <mxCell id="10" value="Photosynthesis" style="whiteSpace=wrap;strokeWidth=2;" vertex="1" parent="1">
          <mxGeometry x="375" y="389" width="165" height="54" as="geometry" />
        </mxCell>
        <mxCell id="11" value="Chloroplasts" style="whiteSpace=wrap;strokeWidth=2;" vertex="1" parent="1">
          <mxGeometry x="242" y="262" width="148" height="54" as="geometry" />
        </mxCell>
        <mxCell id="12" value="Absorbed by" style="curved=1;startArrow=none;endArrow=block;exitX=0.14;exitY=1;entryX=0.5;entryY=0;" edge="1" parent="1" source="2" target="3">
          <mxGeometry relative="1" as="geometry">
            <Array as="points">
              <mxPoint x="272" y="99" />
            </Array>
          </mxGeometry>
        </mxCell>
        <mxCell id="13" value="Converts sunlight into" style="curved=1;startArrow=none;endArrow=block;exitX=0;exitY=0.98;entryX=0.5;entryY=0;" edge="1" parent="1" source="3" target="4">
          <mxGeometry relative="1" as="geometry">
            <Array as="points">
              <mxPoint x="97" y="226" />
            </Array>
          </mxGeometry>
        </mxCell>
        <mxCell id="14" value="Used to convert" style="curved=1;startArrow=none;endArrow=block;exitX=0.5;exitY=1;entryX=0.5;entryY=0;" edge="1" parent="1" source="4" target="5">
          <mxGeometry relative="1" as="geometry">
            <Array as="points" />
          </mxGeometry>
        </mxCell>
        <mxCell id="15" value="Through Photosynthesis" style="curved=1;startArrow=none;endArrow=block;exitX=0.5;exitY=1;entryX=0;entryY=0.09;" edge="1" parent="1" source="5" target="6">
          <mxGeometry relative="1" as="geometry">
            <Array as="points">
              <mxPoint x="97" y="480" />
            </Array>
          </mxGeometry>
        </mxCell>
        <mxCell id="16" value="Stored as" style="curved=1;startArrow=none;endArrow=block;exitX=0.5;exitY=1;entryX=0.5;entryY=0;" edge="1" parent="1" source="6" target="7">
          <mxGeometry relative="1" as="geometry">
            <Array as="points" />
          </mxGeometry>
        </mxCell>
        <mxCell id="17" value="Converted to" style="curved=1;startArrow=none;endArrow=block;exitX=0.5;exitY=1;entryX=0.5;entryY=0;" edge="1" parent="1" source="7" target="8">
          <mxGeometry relative="1" as="geometry">
            <Array as="points" />
          </mxGeometry>
        </mxCell>
        <mxCell id="18" value="Used for" style="curved=1;startArrow=none;endArrow=block;exitX=0.5;exitY=1;entryX=0.5;entryY=0;" edge="1" parent="1" source="8" target="9">
          <mxGeometry relative="1" as="geometry">
            <Array as="points" />
          </mxGeometry>
        </mxCell>
        <mxCell id="19" value="Supports" style="curved=1;startArrow=none;endArrow=block;exitX=0.81;exitY=1;entryX=0.5;entryY=0;" edge="1" parent="1" source="2" target="10">
          <mxGeometry relative="1" as="geometry">
            <Array as="points">
              <mxPoint x="457" y="99" />
            </Array>
          </mxGeometry>
        </mxCell>
        <mxCell id="20" value="Generates" style="curved=1;startArrow=none;endArrow=block;exitX=0.5;exitY=1;entryX=1;entryY=0.15;" edge="1" parent="1" source="10" target="6">
          <mxGeometry relative="1" as="geometry">
            <Array as="points">
              <mxPoint x="457" y="480" />
            </Array>
          </mxGeometry>
        </mxCell>
        <mxCell id="21" value="Occurs in" style="curved=1;startArrow=none;endArrow=block;exitX=0.5;exitY=1;entryX=0.37;entryY=0;" edge="1" parent="1" source="3" target="11">
          <mxGeometry relative="1" as="geometry">
            <Array as="points">
              <mxPoint x="272" y="226" />
            </Array>
          </mxGeometry>
        </mxCell>
        <mxCell id="22" value="Contains" style="curved=1;startArrow=none;endArrow=block;exitX=0.63;exitY=0;entryX=0.77;entryY=1;" edge="1" parent="1" source="11" target="3">
          <mxGeometry relative="1" as="geometry">
            <Array as="points">
              <mxPoint x="360" y="226" />
            </Array>
          </mxGeometry>
        </mxCell>
      </root>
    </mxGraphModel>
  </diagram>
</mxfile>
